<svg xmlns="http://www.w3.org/2000/svg" viewBox="0 0 1440 320"><path fill="#ffffff" fill-opacity="1" d="M0,192L10,181.3C20,171,40,149,60,160C80,171,100,213,120,197.3C140,181,160,107,180,106.7C200,107,220,181,240,192C260,203,280,149,300,122.7C320,96,340,96,360,101.3C380,107,400,117,420,128C440,139,460,149,480,128C500,107,520,53,540,32C560,11,580,21,600,53.3C620,85,640,139,660,170.7C680,203,700,213,720,218.7C740,224,760,224,780,224C800,224,820,224,840,240C860,256,880,288,900,266.7C920,245,940,171,960,154.7C980,139,1000,181,1020,208C1040,235,1060,245,1080,250.7C1100,256,1120,256,1140,240C1160,224,1180,192,1200,160C1220,128,1240,96,1260,80C1280,64,1300,64,1320,64C1340,64,1360,64,1380,80C1400,96,1420,128,1430,144L1440,160L1440,0L1430,0C1420,0,1400,0,1380,0C1360,0,1340,0,1320,0C1300,0,1280,0,1260,0C1240,0,1220,0,1200,0C1180,0,1160,0,1140,0C1120,0,1100,0,1080,0C1060,0,1040,0,1020,0C1000,0,980,0,960,0C940,0,920,0,900,0C880,0,860,0,840,0C820,0,800,0,780,0C760,0,740,0,720,0C700,0,680,0,660,0C640,0,620,0,600,0C580,0,560,0,540,0C520,0,500,0,480,0C460,0,440,0,420,0C400,0,380,0,360,0C340,0,320,0,300,0C280,0,260,0,240,0C220,0,200,0,180,0C160,0,140,0,120,0C100,0,80,0,60,0C40,0,20,0,10,0L0,0Z"></path></svg>